<?xml version="1.0" standalone="no"?>
<!DOCTYPE svg PUBLIC "-//W3C//DTD SVG 20010904//EN"
 "http://www.w3.org/TR/2001/REC-SVG-20010904/DTD/svg10.dtd">
<svg version="1.0" xmlns="http://www.w3.org/2000/svg"
 width="500.000000pt" height="500.000000pt" viewBox="0 0 500.000000 500.000000"
 preserveAspectRatio="xMidYMid meet">
<metadata>
Created by potrace 1.11, written by Peter Selinger 2001-2013
</metadata>
<g transform="translate(0.000000,500.000000) scale(0.100000,-0.100000)"
fill="#000000" stroke="none">
<path d="M843 4982 c-92 -33 -158 -97 -194 -191 -18 -50 -19 -102 -19 -1984 0
-1064 3 -1937 7 -1941 4 -3 8 -13 9 -20 12 -81 124 -188 224 -214 8 -2 166 -5
350 -7 184 -1 338 -3 341 -4 4 0 6 -138 5 -306 0 -168 2 -305 5 -305 4 0 110
103 236 229 l229 230 230 -230 c126 -126 231 -229 234 -229 3 0 5 137 5 305 0
197 3 305 10 306 5 1 370 2 810 3 617 1 805 5 823 14 12 7 22 10 22 8 0 -10
75 34 105 61 46 43 71 83 89 143 15 49 16 233 16 1980 l-1 1925 -29 61 c-32
67 -91 127 -148 151 -20 9 -40 17 -44 17 -3 1 -10 4 -14 8 -4 4 -736 8 -1628
8 -1532 -1 -1624 -2 -1673 -18z m3223 -1702 l1 -1405 -1404 0 c-936 0 -1403 3
-1404 10 -3 21 -5 2790 -3 2796 2 3 634 5 1406 5 l1403 -1 1 -1405z m-2961
-1719 c120 5 183 4 203 -3 13 -4 21 -5 19 0 -6 9 860 8 869 -1 4 -4 11 -4 17
0 15 9 248 10 254 0 2 -4 12 -4 21 1 20 9 339 8 348 -1 4 -4 11 -4 17 0 15 9
248 10 254 0 2 -4 12 -4 21 1 9 4 127 6 262 5 135 -2 259 -3 275 -2 128 5 182
4 198 -3 9 -5 17 -5 17 -1 0 10 161 10 177 0 9 -6 12 -87 10 -314 l-2 -307
-780 0 -779 0 -1 154 0 155 -467 3 -468 2 -1 -22 c0 -13 0 -82 0 -155 0 -92
-4 -133 -12 -135 -10 -3 -531 -2 -593 1 -21 1 -21 3 -21 311 0 347 -7 317 81
312 28 -1 65 -2 81 -1z"/>
<path d="M1569 4355 c-1 -23 -1 -214 0 -262 l1 -32 155 2 154 1 1 60 c1 97 0
130 -6 149 -3 9 -2 17 3 17 10 0 4 79 -6 81 -3 1 -72 2 -153 3 -142 1 -148 1
-149 -19z"/>
<path d="M1569 3713 c-1 -46 -1 -242 0 -263 1 -13 24 -15 148 -13 82 0 152 2
157 2 4 1 6 15 4 31 -3 17 -1 33 3 35 4 3 3 20 -1 39 -4 19 -5 37 -3 40 3 3 4
31 3 63 -1 32 -1 68 -1 81 1 22 0 22 -154 22 l-155 0 -1 -37z"/>
<path d="M1569 3110 c-1 -18 -1 -258 0 -281 1 -15 19 -17 156 -17 l155 0 0 26
c-1 15 0 51 0 80 1 29 -2 62 -5 72 -4 11 -3 20 2 20 4 0 7 26 5 58 l-4 57
-154 0 c-130 0 -154 -2 -155 -15z"/>
<path d="M1569 2488 c-4 -63 -1 -290 5 -295 3 -4 72 -6 152 -6 109 1 149 4
155 14 4 7 6 16 3 21 -8 13 -11 79 -3 83 4 3 4 20 0 37 -4 18 -5 47 -1 63 3
17 3 44 0 60 l-5 30 -153 3 c-118 2 -152 0 -153 -10z"/>
</g>
</svg>
